<?xml version="1.0" standalone="no"?><svg xmlns="http://www.w3.org/2000/svg" viewBox="0 0 1440 320"><path fill="#B3E5FC" fill-opacity="1" d="M0,0L26.7,26.7C53.3,53,107,107,160,149.3C213.3,192,267,224,320,245.3C373.3,267,427,277,480,282.7C533.3,288,587,288,640,288C693.3,288,747,288,800,266.7C853.3,245,907,203,960,202.7C1013.3,203,1067,245,1120,250.7C1173.3,256,1227,224,1280,192C1333.3,160,1387,128,1413,112L1440,96L1440,320L1413.3,320C1386.7,320,1333,320,1280,320C1226.7,320,1173,320,1120,320C1066.7,320,1013,320,960,320C906.7,320,853,320,800,320C746.7,320,693,320,640,320C586.7,320,533,320,480,320C426.7,320,373,320,320,320C266.7,320,213,320,160,320C106.7,320,53,320,27,320L0,320Z"></path></svg>